#!OML:ASF X:\für Bonn\!DataBase\2005_08_10_Bjorn_Final\c3d\bjorn.ASF
:FULLY-SPECIFIED
:DEGREES
79
root 1.44953 19.5411 3.11185 -213.92 -45.6793 -159.636
lowerback 24.2669 -5.83832 -5.30338
upperback 19.4477 -12.6291 -1.08116
thorax 9.72549 -8.66915 3.22661
lowerneck -2.80164 -4.82268 -0.912624
upperneck 14.0992 -10.8919 17.9317
head 5.77662 -5.01033 5.07302
rclavicle -4.77083e-014 -4.13472e-014
rhumerus -33.3013 -2.88524 -88.6428
rradius 33.5016
rwrist 12.4786
rhand -6.84604 11.0054
rfingers 7.12502
rthumb 19.0189 -18.0848
lclavicle -4.77083e-014 -4.13472e-014
lhumerus 48.9952 -20.2382 80.0644
lradius 112.366
lwrist 6.12998
lhand -40.0397 -23.4794
lfingers 7.12502
lthumb -13.006 6.09513
rfemur -77.1317 -12.0104 12.3049
rtibia 129.292
rfoot 4.55366 21.4718
rtoes -22.8789
lfemur 16.5038 -13.901 -9.35066
ltibia 10.7772
lfoot -0.743891 -16.749
ltoes 0.448165
80
root 1.46822 19.5487 3.11978 -214.744 -45.7356 -159.043
lowerback 24.9323 -5.83987 -5.12722
upperback 19.7239 -12.7669 -1.05038
thorax 9.75229 -8.7949 3.24838
lowerneck -2.70873 -4.72436 -0.610953
upperneck 13.7276 -10.7328 18.0735
head 5.62333 -4.94502 5.08193
rclavicle -1.11319e-014 1.04958e-013
rhumerus -33.3542 -2.80305 -88.5981
rradius 33.7355
rwrist 12.2266
rhand -6.89029 11.0401
rfingers 7.12502
rthumb 18.9763 -18.0542
lclavicle -1.11319e-014 1.04958e-013
lhumerus 50.2145 -20.2679 79.5922
lradius 112.544
lwrist 6.06188
lhand -40.0965 -23.5635
lfingers 7.12502
lthumb -13.0608 6.0076
rfemur -78.4642 -12.4745 12.2821
rtibia 129.679
rfoot 4.79177 21.4684
rtoes -21.5632
lfemur 16.9023 -14.202 -9.06734
ltibia 10.5851
lfoot -0.583109 -16.7074
ltoes 0.491701
81
root 1.48695 19.5441 3.12811 -215.518 -45.7741 -158.46
lowerback 25.5631 -5.84641 -4.93943
upperback 19.9826 -12.8998 -1.01839
thorax 9.77481 -8.91349 3.26304
lowerneck -2.58553 -4.62135 -0.3047
upperneck 13.3675 -10.5709 18.2139
head 5.46833 -4.88171 5.09065
rclavicle -1.47896e-013 2.29e-013
rhumerus -33.4218 -2.78347 -88.5232
rradius 33.9627
rwrist 12.017
rhand -6.89547 11.0614
rfingers 7.12502
rthumb 18.9714 -18.0334
lclavicle -1.47896e-013 2.29e-013
lhumerus 51.4272 -20.2615 79.1497
lradius 112.651
lwrist 5.99501
lhand -40.042 -23.575
lfingers 7.12502
lthumb -13.0082 5.99943
rfemur -79.7464 -13.0523 12.3251
rtibia 130.006
rfoot 4.80798 21.4813
rtoes -20.6708
lfemur 17.1925 -14.5534 -8.79877
ltibia 10.5245
lfoot -0.488881 -16.636
ltoes 0.65251
82
root 1.50452 19.5297 3.13464 -216.237 -45.782 -157.95
lowerback 26.178 -5.81839 -4.80418
upperback 20.2172 -12.9927 -0.958952
thorax 9.79434 -9.01874 3.33013
lowerneck -2.40512 -4.5336 -0.0928972
upperneck 12.994 -10.4233 18.3966
head 5.30719 -4.83266 5.1295
rclavicle -1.31993e-013 3.81667e-014
rhumerus -33.5761 -2.69464 -88.3904
rradius 34.2395
rwrist 11.8098
rhand -6.92223 11.0569
rfingers 7.12502
rthumb 18.9456 -18.0404
lclavicle -1.31993e-013 3.81667e-014
lhumerus 52.5666 -20.2399 78.8252
lradius 112.706
lwrist 5.89288
lhand -39.9186 -23.6406
lfingers 7.12502
lthumb -12.8893 5.94138
rfemur -80.8816 -13.6762 12.4189
rtibia 130.254
rfoot 4.57283 21.6109
rtoes -20.4246
lfemur 17.3886 -14.9539 -8.6092
ltibia 10.7126
lfoot -0.625722 -16.4996
ltoes 0.509075
83
root 1.52148 19.5216 3.14335 -216.918 -45.7721 -157.455
lowerback 26.7631 -5.78061 -4.64765
upperback 20.7707 -13.0818 -0.822915
thorax 9.47347 -9.10071 3.34581
lowerneck -2.18985 -4.45547 0.150635
upperneck 12.5812 -10.2884 18.6059
head 5.12986 -4.79461 5.17142
rclavicle -1.51076e-013 1.27222e-014
rhumerus -33.7257 -2.69103 -88.2425
rradius 34.4745
rwrist 11.6082
rhand -6.92443 11.1233
rfingers 7.12502
rthumb 18.9435 -17.9742
lclavicle -1.51076e-013 1.27222e-014
lhumerus 53.707 -20.2132 78.4933
lradius 112.728
lwrist 5.89038
lhand -39.7641 -23.6081
lfingers 7.12502
lthumb -12.7404 5.98317
rfemur -81.894 -13.9799 12.5273
rtibia 130.413
rfoot 4.2072 21.6738
rtoes -20.3956
lfemur 17.4044 -15.3504 -8.42422
ltibia 11.1985
lfoot -0.876529 -16.344
ltoes 0.338779
84
root 1.53717 19.5116 3.15175 -217.509 -45.7294 -157.021
lowerback 27.3121 -5.71794 -4.53177
upperback 20.9627 -13.1146 -0.738162
thorax 9.46335 -9.16922 3.42729
lowerneck -1.939 -4.39998 0.350191
upperneck 12.1718 -10.1783 18.8183
head 4.95208 -4.77316 5.22107
rclavicle -3.18055e-015 1.08139e-013
rhumerus -33.9597 -2.6912 -88.0262
rradius 34.7325
rwrist 11.4913
rhand -6.93669 11.1521
rfingers 7.12502
rthumb 18.9317 -17.9465
lclavicle -3.18055e-015 1.08139e-013
lhumerus 54.7594 -20.1973 78.2849
lradius 112.749
lwrist 5.9081
lhand -39.5415 -23.5776
lfingers 7.12502
lthumb -12.5257 6.027
rfemur -82.9508 -14.28 12.6527
rtibia 130.569
rfoot 3.87272 21.8696
rtoes -20.7727
lfemur 17.3396 -15.7353 -8.27246
ltibia 11.791
lfoot -1.18627 -16.1745
ltoes 0.277928
85
root 1.55279 19.4976 3.15959 -218.102 -45.6808 -156.601
lowerback 27.8734 -5.65144 -4.41579
upperback 21.1577 -13.145 -0.663244
thorax 9.45248 -9.23734 3.49898
lowerneck -1.76095 -4.34937 0.491946
upperneck 11.8272 -10.1028 19.0885
head 4.81656 -4.76385 5.2941
rclavicle -6.04305e-014 -1.27222e-014
rhumerus -34.1905 -2.6558 -87.8244
rradius 34.9732
rwrist 11.3305
rhand -6.97904 11.2014
rfingers 7.12502
rthumb 18.891 -17.9013
lclavicle -6.04305e-014 -1.27222e-014
lhumerus 55.7749 -20.1456 78.088
lradius 112.737
lwrist 6.0237
lhand -39.3018 -23.6585
lfingers 7.12502
lthumb -12.2947 5.96009
rfemur -83.9364 -14.5626 12.8001
rtibia 130.714
rfoot 3.40176 22.1256
rtoes -22.1301
lfemur 17.2956 -16.1406 -8.13608
ltibia 12.3894
lfoot -1.48689 -15.967
ltoes 0.265899
86
root 1.56677 19.4826 3.16722 -218.605 -45.6161 -156.245
lowerback 28.4018 -5.57034 -4.33114
upperback 21.3209 -13.1509 -0.575281
thorax 9.42817 -9.29229 3.59575
lowerneck -1.53833 -4.31424 0.574373
upperneck 11.4568 -10.0435 19.4028
head 4.67159 -4.76909 5.39168
rclavicle 5.08889e-014 6.36111e-015
rhumerus -34.4421 -2.7019 -87.5669
rradius 35.1914
rwrist 11.3382
rhand -6.99403 11.1903
rfingers 7.12502
rthumb 18.8766 -17.9138
lclavicle 5.08889e-014 6.36111e-015
lhumerus 56.7179 -20.1164 77.9751
lradius 112.759
lwrist 6.17846
lhand -39.0133 -23.6572
lfingers 7.12502
lthumb -12.0165 5.97779
rfemur -84.9181 -14.822 12.9361
rtibia 130.832
rfoot 3.01297 22.3698
rtoes -23.5422
lfemur 17.1832 -16.5243 -8.04149
ltibia 13.06
lfoot -1.85531 -15.7258
ltoes 0.209566
87
root 1.57957 19.4649 3.17525 -219.091 -45.5229 -155.902
lowerback 28.8822 -5.48981 -4.18809
upperback 21.5069 -13.1454 -0.524066
thorax 9.43169 -9.33291 3.61347
lowerneck -1.3189 -4.28891 0.689074
upperneck 11.0746 -10.0026 19.7376
head 4.52573 -4.78526 5.48914
rclavicle 6.99722e-014 1.27222e-014
rhumerus -34.6766 -2.7994 -87.3682
rradius 35.3848
rwrist 11.3263
rhand -7.02093 11.1903
rfingers 7.12502
rthumb 18.8507 -17.9163
lclavicle 6.99722e-014 1.27222e-014
lhumerus 57.6839 -20.1085 77.7962
lradius 112.803
lwrist 6.46361
lhand -38.7757 -23.6475
lfingers 7.12502
lthumb -11.7873 6.00084
rfemur -85.8352 -15.0039 13.0734
rtibia 130.934
rfoot 2.82763 22.5112
rtoes -24.5184
lfemur 16.9982 -16.8838 -7.94011
ltibia 13.8798
lfoot -2.31236 -15.5121
ltoes -0.0296948
88
root 1.59155 19.4478 3.18247 -219.514 -45.4191 -155.613
lowerback 29.3408 -5.39389 -4.10374
upperback 21.6686 -13.1267 -0.446417
thorax 9.43502 -9.37325 3.68465
lowerneck -1.01433 -4.25738 0.69578
upperneck 10.6581 -9.93904 20.1244
head 4.35857 -4.80145 5.62606
rclavicle -2.70347e-014 4.77083e-014
rhumerus -34.8961 -2.88969 -87.1086
rradius 35.5364
rwrist 11.4508
rhand -7.03697 11.1674
rfingers 7.12502
rthumb 18.8353 -17.9407
lclavicle -2.70347e-014 4.77083e-014
lhumerus 58.5778 -20.0818 77.677
lradius 112.848
lwrist 6.78398
lhand -38.6416 -23.5671
lfingers 7.12502
lthumb -11.6581 6.0886
rfemur -86.6958 -15.0959 13.1842
rtibia 131.01
rfoot 2.82162 22.5359
rtoes -24.6582
lfemur 16.7726 -17.2074 -7.86037
ltibia 14.755
lfoot -2.78919 -15.303
ltoes -0.122171
89
root 1.6022 19.4223 3.18918 -219.918 -45.3052 -155.319
lowerback 29.7608 -5.30833 -3.95917
upperback 21.8286 -13.1006 -0.386758
thorax 9.43738 -9.39832 3.70151
lowerneck -0.673267 -4.24466 0.697522
upperneck 10.2492 -9.90378 20.5263
head 4.19143 -4.83563 5.76859
rclavicle -1.01778e-013 2.06736e-013
rhumerus -35.1141 -3.04815 -86.8713
rradius 35.6493
rwrist 11.6041
rhand -7.09421 11.1525
rfingers 7.12502
rthumb 18.7802 -17.961
lclavicle -1.01778e-013 2.06736e-013
lhumerus 59.3719 -20.1578 77.6467
lradius 112.893
lwrist 7.19202
lhand -38.4563 -23.5728
lfingers 7.12502
lthumb -11.4794 6.09289
rfemur -87.3905 -15.1966 13.3461
rtibia 131.013
rfoot 2.75718 22.4911
rtoes -24.5422
lfemur 16.489 -17.5658 -7.78251
ltibia 15.7114
lfoot -3.30697 -15.0412
ltoes -0.278019
90
root 1.61202 19.3979 3.19478 -220.263 -45.1946 -155.12
lowerback 30.1751 -5.20592 -3.89258
upperback 21.9796 -13.0691 -0.331336
thorax 9.44698 -9.42924 3.75073
lowerneck -0.263433 -4.21909 0.621892
upperneck 9.79991 -9.83563 20.9664
head 4.00098 -4.86408 5.94139
rclavicle -1.03368e-013 6.99722e-014
rhumerus -35.3452 -3.097 -86.6216
rradius 35.7551
rwrist 11.7517
rhand -7.12903 11.1106
rfingers 7.12502
rthumb 18.7467 -18.006
lclavicle -1.03368e-013 6.99722e-014
lhumerus 60.0835 -20.2061 77.6404
lradius 112.947
lwrist 7.59688
lhand -38.3978 -23.5692
lfingers 7.12502
lthumb -11.4229 6.09965
rfemur -87.9129 -15.1566 13.3899
rtibia 130.982
rfoot 2.73811 22.3863
rtoes -24.2333
lfemur 16.2173 -17.8713 -7.76513
ltibia 16.693
lfoot -3.77761 -14.8036
ltoes -0.0727987
91
root 1.62087 19.3709 3.19953 -220.575 -45.0319 -154.912
lowerback 30.506 -5.1056 -3.78748
upperback 22.1412 -13.0288 -0.278388
thorax 9.49537 -9.45033 3.76287
lowerneck 0.11114 -4.19349 0.578986
upperneck 9.36268 -9.7696 21.389
head 3.81867 -4.8923 6.10219
rclavicle 1.43125e-014 -4.45278e-014
rhumerus -35.5238 -3.20009 -86.3738
rradius 35.7825
rwrist 11.9805
rhand -7.18829 11.0889
rfingers 7.12502
rthumb 18.6897 -18.0333
lclavicle 1.43125e-014 -4.45278e-014
lhumerus 60.7692 -20.2721 77.6089
lradius 113.052
lwrist 8.07908
lhand -38.3368 -23.5069
lfingers 7.12502
lthumb -11.3641 6.16517
rfemur -88.27 -14.9575 13.4601
rtibia 130.894
rfoot 2.72293 22.3154
rtoes -24.1911
lfemur 15.8935 -18.1384 -7.70078
ltibia 17.731
lfoot -4.36045 -14.574
ltoes -0.31162
